# xmcd CD database file
#
# Track frame offsets:
#	150
#	14677
#	31510
#	53815
#	71844
#	90657
#	106253
#	121883
#	137034
#	156323
#	171551
#	188098
#	203457
#	220996
#
# Disc length: 3216 seconds
#
# Revision: 3
# Processed by: cddbd v1.4PL0 Copyright (c) Steve Scherf et al.
# Submitted via: CDex 1.40Beta9
#
DISCID=c20c8e0e
DTITLE=Daniel Lee Martin - Daniel Lee Martin
DYEAR=2000
DGENRE=Country
TTITLE0=Freedom's Finnally Mine
TTITLE1=Lucy Kept Hangin' On
TTITLE2=It was Your Love
TTITLE3=Take a Chance On Love
TTITLE4=I Can't Let Go
TTITLE5=Good Thing Going Gone
TTITLE6=Can I Try
TTITLE7=Little Bit
TTITLE8=It's Already Been Said
TTITLE9=Purely Speculation
TTITLE10=See Saw
TTITLE11=Until You
TTITLE12=Praying For Keeps
TTITLE13=A Guitar With No Strings
EXTD=YEAR: 2000 ID3G: 2
EXTT0=
EXTT1=
EXTT2=
EXTT3=
EXTT4=
EXTT5=
EXTT6=
EXTT7=
EXTT8=
EXTT9=
EXTT10=
EXTT11=
EXTT12=
EXTT13=
PLAYORDER=
